# AST/ASF file generated using VICON BodyLanguage
# -----------------------------------------------
:version 1.10
:name VICON
:units
  mass 1.0
  length 0.45
  angle deg
:documentation
   .ast/.asf automatically generated from VICON data using
   VICON BodyBuilder and BodyLanguage model FoxedUp or BRILLIANT.MOD
:root
   order TX TY TZ RX RY RZ
   axis XYZ
   position 0 0 0  
   orientation 0 -0 0 
:bonedata
  begin
     id 1 
     name lhipjoint
     direction 0.432694 -0.693742 0.575759 
     length 2.19277 
     axis 0 -0 0  XYZ
  end
  begin
     id 2 
     name lfemur
     direction 0.34202 -0.939693 0  
     length 6.69022  
     axis 0 -0 20  XYZ
    dof rx ry rz
    limits (-160.0 20.0)
           (-70.0 70.0)
           (-60.0 70.0)
  end
  begin
     id 3 
     name ltibia
     direction 0.34202 -0.939693 0   
     length 6.50337   
     axis 0 -0 20   XYZ
    dof rx
    limits (-10.0 170.0)
  end
  begin
     id 4 
     name lfoot
     direction 0.158999 -0.435969 0.885805   
     length 2.70564   
     axis -90 -1.13533e-015 20   XYZ
    dof rx rz
    limits (-45.0 90.0)
           (-70.0 20.0)
  end
  begin
     id 5 
     name ltoes
     direction -0.00592919 0.00964381 0.999936   
     length 1.29929   
     axis -90 -1.13533e-015 20   XYZ
    dof rx
    limits (-90.0 20.0)
  end
  begin
     id 6 
     name rhipjoint
     direction -0.414359 -0.700339 0.581234   
     length 2.17212  
     axis 0 -0 0  XYZ 
  end
  begin
     id 7 
     name rfemur
     direction -0.34202 -0.939693 0   
     length 7.17659   
     axis 0 -0 -20   XYZ
    dof rx ry rz
    limits (-160.0 20.0)
           (-70.0 70.0)
           (-70.0 60.0)
  end
  begin
     id 8 
     name rtibia
     direction -0.34202 -0.939693 0   
     length 6.36669   
     axis 0 -0 -20   XYZ
    dof rx
    limits (-10.0 170.0)
 end
 begin
     id 9 
     name rfoot
     direction -0.137064 -0.37658 0.916188   
     length 2.22351  
     axis -90 1.13533e-015 -20   XYZ
    dof rx rz
    limits (-45.0 90.0)
           (-20.0 70.0)
  end
  begin
     id 10 
     name rtoes
     direction -0.000784077 -0.00289101 0.999996   
     length 1.09522   
     axis -90 1.13533e-015 -20   XYZ
    dof rx
    limits (-90.0 20.0)
  end
  begin
     id 11 
     name lowerback
     direction -0.0176242 0.984912 -0.172157   
     length 1.65301   
     axis 0 -0 0   XYZ
    dof rx ry rz
    limits (-20.0 45.0)
           (-30.0 30.0)
           (-30.0 30.0)
  end
  begin
     id 12 
     name upperback
     direction -0.00218128 0.998776 -0.0494072   
     length 1.67776   
     axis 0 -0 0   XYZ
    dof rx ry rz
    limits (-20.0 45.0)
           (-30.0 30.0)
           (-30.0 30.0)
  end
  begin
     id 13 
     name thorax
     direction 0.00544186 0.999658 0.0255711   
     length 1.72293   
     axis 0 -0 0   XYZ
    dof rx ry rz
    limits (-20.0 45.0)
           (-30.0 30.0)
           (-30.0 30.0)
  end
  begin
     id 14 
     name lowerneck
     direction -0.105325 0.983841 0.144785   
     length 2.14226   
     axis 0 -0 0   XYZ
    dof rx ry rz
    limits (-20.0 45.0)
           (-30.0 30.0)
           (-30.0 30.0)
  end
  begin
     id 15 
     name upperneck
     direction 0.0547957 0.988053 -0.144041   
     length 2.17508   
     axis 0 -0 0   XYZ
    dof rx ry rz
    limits (-20.0 45.0)
           (-30.0 30.0)
           (-30.0 30.0)
  end
  begin
     id 16
     name head
     direction 0.0247488 0.997534 -0.0656813  
     length 2.20048  
     axis 0 -0 0   XYZ
    dof rx ry rz
    limits (-20.0 45.0)
           (-30.0 30.0)
           (-30.0 30.0)
  end
  begin
     id 17 
     name lclavicle
     direction 0.820559 0.567247 -0.0701026  
     length 4.09615  
     axis 0 -0 0   XYZ
    dof ry rz
    limits (-20.0 10.0)
           (0.0 20.0)
  end
  begin
     id 18 
     name lhumerus
     direction 0.999977 -0.0067566 -9.96392e-005   
     length 4.59333   
     axis -180 -30 -90   XYZ
    dof rx ry rz
    limits (-60.0 90.0)
           (-90.0 90.0)
           (-90.0 90.0)
  end
  begin
     id 19
     name lradius
     direction 1 -4.48982e-011 -2.53425e-027   
     length 2.81151   
     axis -180 -30 -90   XYZ
    dof rx
    limits (-10.0 170.0)
  end
  begin
     id 20
     name lwrist
     direction 1 -4.48939e-011 -7.39254e-028   
     length 1.40576   
     axis 2.56395e-016 90 90   XYZ
    dof ry
    limits (-180.0 0.0)
 end
  begin
     id 21 
     name lhand
     direction 1 -4.48939e-011 -1.47851e-027   
     length 0.895651   
     axis 9.43423e-016 90 90   XYZ
    dof rx rz
    limits (-90.0 90.0)
           (-45.0 45.0)
  end
  begin
     id 22 
     name lfingers
     direction 1 -4.48978e-011 -2.95702e-027   
     length 0.722097   
     axis 1.88685e-015 90 90   XYZ
    dof rx
    limits (0.0 90.0)
  end
  begin
     id 23
     name lthumb
     direction 0.707107 -6.34931e-011 0.707107   
     length 1.03679   
     axis -90 45 -9.86935e-015   XYZ
    dof rx rz
    limits (-45.0 45.0)
           (-45.0 45.0)
  end
  begin
     id 24 
     name rclavicle
     direction -0.831414 0.553102 -0.0531864   
     length 4.24872  
     axis 0 -0 0   XYZ 
    dof ry rz
    limits (-10.0 20.0)
           (-20.0 0.0)
  end
  begin
     id 25 
     name rhumerus
     direction -0.999916 -0.000939607 0.0129331  
     length 4.74834   
     axis -180 30 90   XYZ
    dof rx ry rz
    limits (-90.0 60.0)
           (-90.0 90.0)
           (-90.0 90.0)
  end
  begin
     id 26 
     name rradius
     direction -1 -4.48956e-011 -1.31752e-027   
     length 2.79907   
     axis -180 30 90   XYZ
    dof rx
    limits (-10.0 170.0)
  end
  begin
     id 27 
     name rwrist
     direction -1 -4.4897e-011 -7.39254e-028   
     length 1.39954   
     axis 2.56395e-016 -90 -90   XYZ
    dof ry
    limits (-180.0 0.0)
  end
  begin
     id 28
     name rhand
     direction -0.999997 -0.00250697 0.000800838   
     length 0.953304   
     axis 9.43423e-016 -90 -90   XYZ
    dof rx rz
    limits (-90.0 90.0)
           (-45.0 45.0)
  end
  begin
     id 29
     name rfingers
     direction -1 -4.48954e-011 -2.95702e-027   
     length 0.763342   
     axis 1.88685e-015 -90 -90   XYZ
    dof rx
    limits (0.0 90.0)
  end
  begin
     id 30
     name rthumb
     direction -0.709701 -0.00217037 0.7045   
     length 1.10115   
     axis -90 -45 9.86935e-015   XYZ
    dof rx rz
    limits (-45.0 45.0)
           (-45.0 45.0)
  end
:hierarchy
  begin
    root lhipjoint rhipjoint lowerback
    lhipjoint lfemur
    lfemur ltibia
    ltibia lfoot
    lfoot ltoes
    rhipjoint rfemur
    rfemur rtibia
    rtibia rfoot
    rfoot rtoes
    lowerback upperback
    upperback thorax
    thorax lowerneck lclavicle rclavicle
    lowerneck upperneck
    upperneck head
    lclavicle lhumerus
    lhumerus lradius
    lradius lwrist
    lwrist lhand lthumb
    lhand lfingers
    rclavicle rhumerus
    rhumerus rradius
    rradius rwrist
    rwrist rhand rthumb
    rhand rfingers
  end

#!OML:ASF G:\ViconDB\ViconDB\414\test\team2\shane.ASF
:FULLY-SPECIFIED
:DEGREES
81
root 3.61383 15.7115 -18.6015 234.078 74.2101 83.7792
lowerback -2.12014 -1.54648 2.31076
upperback -3.70818 -1.99768 4.78207
thorax -2.53807 -1.00014 3.64038
lowerneck -18.7386 -9.0189 -8.77373
upperneck 22.5719 -10.8802 5.67038
head 11.2424 -4.9582 1.80728
rclavicle 1.47101e-014 2.22639e-014
rhumerus 57.0817 -11.0929 -46.0867
rradius 35.0361
rwrist 29.2209
rhand -56.0001 -67.1021
rfingers 7.12502
rthumb -28.3364 94.978
lclavicle 1.47101e-014 2.22639e-014
lhumerus 63.1473 6.20025 8.2196
lradius 36.377
lwrist -4.37521
lhand -69.2684 224.751
lfingers 7.12502
lthumb -40.922 -160.19
rfemur 22.9078 -4.97934 -8.94078
rtibia 31.5376
rfoot -2.78393 -13.7511
rtoes -8.03394
lfemur 6.64023 -17.4106 32.1671
ltibia 63.3919
lfoot 13.5817 -17.731
ltoes -7.10347
82
root 3.64106 15.7658 -18.3869 237.719 72.2597 86.9104
lowerback -2.20078 -1.70238 2.70563
upperback -3.83636 -2.19267 5.40726
thorax -2.61092 -1.1003 4.07276
lowerneck -18.8826 -9.00788 -8.54274
upperneck 22.2972 -11.008 5.94455
head 11.1796 -4.9721 1.84289
rclavicle 1.59028e-015 4.13472e-014
rhumerus 57.5788 -11.5941 -46.9997
rradius 34.2897
rwrist 29.486
rhand -55.8834 -67.1633
rfingers 7.12502
rthumb -28.2248 95.0577
lclavicle 1.59028e-015 4.13472e-014
lhumerus 63.5099 6.67772 7.93204
lradius 36.1319
lwrist -4.32596
lhand -69.29 225.05
lfingers 7.12502
lthumb -40.9423 -159.885
rfemur 22.4567 -4.75582 -9.08356
rtibia 30.1576
rfoot -3.00224 -14.756
rtoes -7.42299
lfemur 8.55573 -18.5647 30.7236
ltibia 62.7931
lfoot 13.7654 -18.1531
ltoes -7.17787
83
root 3.66817 15.8213 -18.1709 240.45 70.1832 89.1504
lowerback -2.17964 -1.87687 3.204
upperback -3.99278 -2.40528 5.96874
thorax -2.77544 -1.21367 4.38836
lowerneck -19.0709 -9.04023 -8.06897
upperneck 22.2241 -11.1606 5.84921
head 11.162 -5.0138 1.70136
rclavicle -1.98785e-014 -5.725e-014
rhumerus 57.7869 -12.0164 -47.3909
rradius 33.6734
rwrist 29.2234
rhand -55.9617 -67.7684
rfingers 7.12502
rthumb -28.2997 95.6505
lclavicle -1.98785e-014 -5.725e-014
lhumerus 64.1796 7.23881 8.12216
lradius 35.6741
lwrist -4.99709
lhand -69.3128 226.654
lfingers 7.12502
lthumb -40.9638 -158.274
rfemur 21.9799 -4.53872 -9.16102
rtibia 28.8547
rfoot -3.41189 -15.7827
rtoes -8.09326
lfemur 10.3899 -19.7554 29.2699
ltibia 62.2351
lfoot 13.8242 -18.1804
ltoes -6.6595
84
root 3.6998 15.8727 -17.9543 242.688 68.2488 90.8189
lowerback -2.01406 -2.03266 3.60288
upperback -4.18626 -2.57652 6.47616
thorax -3.06026 -1.30432 4.71464
lowerneck -19.2774 -8.99161 -7.61889
upperneck 21.9263 -11.2229 5.84567
head 11.064 -5.01176 1.61282
rclavicle -3.65764e-014 9.93923e-014
rhumerus 57.8523 -12.4215 -47.294
rradius 33.1327
rwrist 28.4583
rhand -55.8887 -67.8672
rfingers 7.12502
rthumb -28.2298 95.7608
lclavicle -3.65764e-014 9.93923e-014
lhumerus 64.5992 7.70516 6.74825
lradius 35.3818
lwrist -4.29055
lhand -69.255 227.726
lfingers 7.12502
lthumb -40.9094 -157.219
rfemur 21.3558 -4.38436 -9.45108
rtibia 27.596
rfoot -4.00544 -16.7213
rtoes -8.47352
lfemur 12.1478 -20.8339 27.4956
ltibia 61.6839
lfoot 13.9958 -17.6372
ltoes -6.14893
85
root 3.72526 15.9046 -17.7401 244.821 66.6329 92.1969
lowerback -2.02915 -2.16069 3.69785
upperback -4.35377 -2.7264 6.89731
thorax -3.2059 -1.37655 5.1145
lowerneck -19.5246 -9.0199 -7.19854
upperneck 21.5748 -11.4057 5.93627
head 10.9715 -5.05893 1.54056
rclavicle 8.66701e-014 1.13705e-013
rhumerus 57.7591 -12.6468 -46.3839
rradius 32.7727
rwrist 26.9586
rhand -55.8786 -68.3839
rfingers 7.12502
rthumb -28.2202 96.2791
lclavicle 8.66701e-014 1.13705e-013
lhumerus 65.2799 8.45136 5.819
lradius 34.7182
lwrist -4.02314
lhand -69.2813 229.73
lfingers 7.12502
lthumb -40.9342 -155.207
rfemur 20.2565 -4.38016 -10.0854
rtibia 26.5392
rfoot -4.34075 -17.5236
rtoes -9.79919
lfemur 13.8752 -21.6591 25.2263
ltibia 61.1349
lfoot 13.6018 -17.2145
ltoes -6.48562
86
root 3.76131 15.9545 -17.5214 247.198 64.9686 93.7886
lowerback -1.81637 -2.28491 3.82036
upperback -4.53479 -2.84571 7.38294
thorax -3.49434 -1.43194 5.58286
lowerneck -19.7464 -9.01427 -7.05864
upperneck 21.0112 -11.5925 6.52125
head 10.8505 -5.08323 1.68815
rclavicle -1.47101e-013 -1.47101e-013
rhumerus 57.6654 -12.7256 -45.2324
rradius 32.5369
rwrist 25.2734
rhand -55.4185 -67.8916
rfingers 7.12502
rthumb -27.7804 95.8586
lclavicle -1.47101e-013 -1.47101e-013
lhumerus 64.9676 9.21533 3.4752
lradius 35.1559
lwrist -2.26848
lhand -69.4073 231.523
lfingers 7.12502
lthumb -41.0525 -153.376
rfemur 18.9374 -4.28758 -10.6447
rtibia 25.6632
rfoot -5.10611 -18.3338
rtoes -9.70605
lfemur 15.4678 -22.2793 23.1652
ltibia 60.5414
lfoot 13.3767 -16.4054
ltoes -6.77485
87
root 3.78488 15.9724 -17.3039 249.393 63.6225 94.975
lowerback -1.79667 -2.3934 3.65957
upperback -4.7742 -2.93065 7.6983
thorax -3.72981 -1.41498 6.02237
lowerneck -19.7402 -8.99565 -7.24408
upperneck 20.2608 -11.708 7.30339
head 10.6519 -5.08852 1.97612
rclavicle 2.51264e-013 6.59965e-014
rhumerus 57.6869 -13.0332 -44.6458
rradius 32.1097
rwrist 24.1943
rhand -55.2609 -68.0601
rfingers 7.12502
rthumb -27.6297 96.0513
lclavicle 2.51264e-013 6.59965e-014
lhumerus 64.8824 10.0403 1.37901
lradius 35.4195
lwrist -0.494206
lhand -69.7152 232.564
lfingers 7.12502
lthumb -41.3416 -152.243
rfemur 17.2828 -4.56474 -11.6469
rtibia 24.8236
rfoot -5.6395 -18.9714
rtoes -9.64796
lfemur 16.8096 -22.5611 20.7539
ltibia 59.9222
lfoot 13.0697 -15.9989
ltoes -7.20251
